<svg xmlns="http://www.w3.org/2000/svg" fill="none" viewBox="0 0 460 460"><rect width="420" height="420" x="20" y="20" fill="#fff" stroke="#000" stroke-width="40" rx="40"/><mask id="a" fill="#fff"><path d="m338 201.91.79.14-.33.47.2.28-.35-.06-162.13 230.48-73.53-272.04-.35-.06.29-.19-.16-.56.79.14 137.2-91.67z"/></mask><path fill="#fff" d="m338 201.91.79.14-.33.47.2.28-.35-.06-162.13 230.48-73.53-272.04-.35-.06.29-.19-.16-.56.79.14 137.2-91.67z"/><path fill="#000" d="m338 201.91-25.8 18.93 7.6 10.36 12.65 2.23zm.79.14 26.15 18.44 29.05-41.2-49.64-8.75zm-.33.47L312.3 184.1l-13.26 18.81 13.62 18.56zm.2.28-5.56 31.51 78.55 13.85-47.2-64.3zm-.35-.06 5.55-31.52-20.03-3.53-11.7 16.63zM176.18 433.22l-30.9 8.35 17.8 65.87 39.27-55.81zm-73.53-272.04 30.9-8.34-5.31-19.64-20.03-3.53zm-.35-.06L84.5 134.54l-66.07 44.29 78.33 13.8zm.29-.19 17.81 26.58 19.05-12.77-5.97-22.14zm-.16-.56 5.56-31.5-49.55-8.75 13.1 48.59zm.79.14-5.56 31.52 12.65 2.23 10.68-7.14zm137.2-91.67 25.81-18.93-18.11-24.7-25.47 17.02zm97.59 133.07-5.56 31.52.78.13 5.56-31.51 5.56-31.51-.79-.14zm.78.14-26.16-18.44-.33.48 26.16 18.43 26.15 18.44.33-.47zm-.33.47-25.8 18.94.2.27 25.8-18.93 25.8-18.94-.2-.27zm.2.28 5.55-31.52-.35-.06-5.55 31.52-5.56 31.51.35.06zm-.35-.06-26.18-18.42L150 414.82l26.18 18.4 26.17 18.42 162.13-230.48zM176.18 433.22l30.89-8.35-73.53-272.04-30.89 8.35-30.89 8.35 73.52 272.04zm-73.53-272.04 5.56-31.51-.35-.06-5.56 31.51-5.55 31.52.35.06zm-.35-.06 17.82 26.58.28-.19-17.81-26.58-17.82-26.58-.28.2zm.29-.19 30.9-8.33-.16-.56-30.9 8.34-30.9 8.33.16.55zm-.16-.56-5.55 31.52.78.14 5.56-31.52 5.55-31.51-.78-.14zm.79.14 17.77 26.61L258.2 95.45l-17.77-26.61-17.78-26.61-137.21 91.68zm137.2-91.67-25.8 18.92 97.58 133.07 25.8-18.92L363.82 183 266.23 49.91z" mask="url(#a)"/><circle cx="211.88" cy="232.47" r="26.21" fill="#fff" stroke="#000" stroke-width="20" transform="rotate(10 211.88 232.47)"/><path stroke="#fd7e14" stroke-width="40" d="M441.49 355.7S399.7 311 342.4 311s-97.6 44.7-97.6 44.7"/><path fill="#fd7e14" d="M62.15 342.3a20 20 0 1 0 29.7 26.8L77 355.7zm211.53 13.4c14.61-13.66 14.6-13.66 14.6-13.67h-.01q-.01-.02-.02-.03l-.06-.07-.7-.71q-.63-.67-1.76-1.77a155 155 0 0 0-6.34-5.82 192 192 0 0 0-23.05-17.17C236.91 304.13 208.4 291 174.6 291v40c23.5 0 44.53 9.22 60.31 19.24 7.79 4.94 14 9.89 18.21 13.56a115 115 0 0 1 5.97 5.59l.02.01-.01-.01-.02-.02c-.01-.01-.01-.01 14.6-13.67M174.6 311v-20c-33.85 0-62.03 13.16-81.17 25.57a184 184 0 0 0-22.6 17.25 148 148 0 0 0-8.42 8.2l-.16.17-.06.07-.02.03h-.02c0 .01 0 .02 14.85 13.4l14.85 13.41-.01.01-.02.01-.01.02.01-.01 1.21-1.26c.97-.97 2.5-2.45 4.51-4.26a144 144 0 0 1 17.65-13.48c15.34-9.94 35.95-19.13 59.4-19.13zM286.01 291.66l.66 20 39.98-1.33-.66-20L306 291zM325.91 92a20 20 0 0 0-39.81-3.98L306 90zM301 139.98l-19.9-2-.13 1.33.04 1.33zM306 291l19.99-.66-5-151.02-19.99.66-19.99.66 5 151.02zm-5-151.02 19.9 1.99 5-49.98L306 90l-19.9-2-5 49.99z"/><path stroke="#fd7e14" stroke-linecap="round" stroke-width="40" d="M306 90h79M385.5 90.5v100c-.5 12.83-5.3 34.9-20.5 20.5"/><rect width="420" height="420" x="20" y="20" stroke="#000" stroke-linejoin="round" stroke-width="40" rx="40"/></svg>