<?xml version="1.0" encoding="UTF-8" standalone="no"?>
<!DOCTYPE svg PUBLIC "-//W3C//DTD SVG 1.1//EN" "http://www.w3.org/Graphics/SVG/1.1/DTD/svg11.dtd">
<svg width="100%" height="100%" viewBox="0 0 2785 2785" version="1.1" xmlns="http://www.w3.org/2000/svg" xmlns:xlink="http://www.w3.org/1999/xlink" xml:space="preserve" xmlns:serif="http://www.serif.com/" style="fill-rule:evenodd;clip-rule:evenodd;stroke-linejoin:round;stroke-miterlimit:2;">
    <g transform="matrix(1,0,0,1,-25.4957,-24.9225)">
        <g transform="matrix(1,0,0,1,22.9272,22.8708)">
            <circle cx="1394.6" cy="1394.09" r="1392.03" style="fill:white;"/>
        </g>
        <g transform="matrix(1,0,0,1,0,91)">
            <g transform="matrix(8.87494,0,0,8.87494,252.376,833.131)">
                <path d="M254.582,32.957C254.582,25.04 248.164,18.622 240.248,18.622C232.331,18.622 225.913,25.04 225.913,32.957C225.913,40.873 232.331,47.29 240.248,47.29C248.164,47.29 254.582,40.873 254.582,32.957ZM246.473,32.866C246.473,36.332 243.663,39.143 240.197,39.143C236.73,39.143 233.92,36.332 233.92,32.866C233.92,29.4 236.73,26.589 240.197,26.589C243.663,26.589 246.473,29.4 246.473,32.866Z" style="fill:rgb(0,151,210);fill-rule:nonzero;"/>
            </g>
            <g transform="matrix(8.87494,0,0,8.87494,252.376,833.131)">
                <path d="M259.351,63.647C261.151,63.647 262.611,62.187 262.611,60.387C262.611,58.587 261.151,57.127 259.351,57.127C257.55,57.127 256.091,58.587 256.091,60.387C256.091,62.187 257.55,63.647 259.351,63.647Z" style="fill:rgb(0,151,210);fill-rule:nonzero;"/>
            </g>
            <g transform="matrix(8.87494,0,0,8.87494,252.376,833.131)">
                <path d="M259.351,71.32C261.151,71.32 262.611,69.86 262.611,68.06C262.611,66.26 261.151,64.8 259.351,64.8C257.55,64.8 256.091,66.26 256.091,68.06C256.091,69.86 257.55,71.32 259.351,71.32Z" style="fill:rgb(0,151,210);fill-rule:nonzero;"/>
            </g>
            <g transform="matrix(8.87494,0,0,8.87494,252.376,833.131)">
                <path d="M254.582,63.648C254.582,55.731 248.164,49.313 240.248,49.313C232.331,49.313 225.913,55.731 225.913,63.648C225.913,71.564 232.331,77.982 240.248,77.982C248.164,77.982 254.582,71.564 254.582,63.648ZM246.473,63.557C246.473,67.024 243.663,69.833 240.197,69.833C236.73,69.833 233.92,67.024 233.92,63.557C233.92,60.091 236.73,57.281 240.197,57.281C243.663,57.281 246.473,60.091 246.473,63.557Z" style="fill:rgb(0,151,210);fill-rule:nonzero;"/>
            </g>
            <g transform="matrix(8.87494,0,0,8.87494,252.376,833.131)">
                <path d="M34.955,38.181C35.077,38.181 35.202,38.182 35.327,38.184C46.988,38.423 56.277,48.986 56.038,62.942C55.8,76.633 46.307,87.77 34.873,87.77C34.75,87.77 34.625,87.769 34.501,87.765C22.84,87.529 13.551,75.982 13.793,62.027C14.029,48.334 23.523,38.181 34.955,38.181ZM34.955,23.81C15.965,23.81 0.382,40.111 0.007,61.768C-0.368,83.666 14.953,101.742 34.23,102.134C34.444,102.139 34.66,102.14 34.873,102.14C53.863,102.14 69.449,84.856 69.822,63.201C70.2,41.3 54.878,24.212 35.599,23.818C35.385,23.812 35.168,23.81 34.955,23.81Z" style="fill:rgb(250,162,44);fill-rule:nonzero;"/>
            </g>
            <g transform="matrix(8.87494,0,0,8.87494,252.376,833.131)">
                <path d="M112.542,30.981L112.542,69.92C99.981,63.233 87.223,58.704 87.223,58.704L87.223,19.755C87.223,19.755 66.462,11.575 34.962,6.068L34.962,17.429C60.45,22.072 74.725,26.885 74.725,26.885L74.725,112.405C74.725,112.405 80.765,114.127 87.223,116.177L87.223,71.686C87.223,71.686 100.876,76.597 112.542,82.914L112.542,125.549C112.542,125.549 118.29,128.013 125.039,131.529L125.039,38.325C120.834,35.578 116.809,33.253 112.542,30.981Z" style="fill:rgb(250,162,44);fill-rule:nonzero;"/>
            </g>
            <g transform="matrix(8.87494,0,0,8.87494,252.376,833.131)">
                <path d="M221.161,91.856C191.457,97.634 155.707,108.204 131.038,120.94L131.038,131.529C157.981,117.065 198.399,107.381 221.161,102.719L221.161,91.856Z" style="fill:rgb(0,151,210);fill-rule:nonzero;"/>
            </g>
            <g transform="matrix(8.87494,0,0,8.87494,252.376,833.131)">
                <path d="M141.826,64.263L141.826,51.052L141.828,51.052L141.827,42.378C152.123,37.093 163.635,32.596 174.633,28.91L174.633,18.125C158.846,23.601 143.336,30.377 131.084,37.911L131.084,38.091C131.068,38.101 131.051,38.111 131.036,38.121L131.036,115.468C136.889,112.419 141.826,110.329 141.826,110.329L141.829,76.131L141.826,76.131L141.826,73.412C152.123,68.795 163.635,64.866 174.633,61.645L174.633,52.224C163.168,55.698 151.857,59.773 141.826,64.263Z" style="fill:rgb(0,151,210);fill-rule:nonzero;"/>
            </g>
            <g transform="matrix(8.87494,0,0,8.87494,252.376,833.131)">
                <path d="M255.119,0C240.542,2.352 228.676,4.514 220.872,5.998C214.735,7.101 210.892,7.893 210.62,7.983L210.604,43.344C203.731,44.643 196.396,46.284 188.918,48.217L188.908,13.556C184.991,14.713 183.506,15.186 178.44,16.842L178.44,96.989C184.097,95.293 188.159,94.203 188.934,93.966L188.918,57.75C197.376,55.601 204.932,53.945 210.604,52.786L210.607,88.59C216.154,87.276 221.161,86.382 221.161,86.382L221.161,14.997L221.27,15.021L221.27,14.788C221.27,14.788 233.422,12.572 255.119,8.925L255.119,0Z" style="fill:rgb(0,151,210);fill-rule:nonzero;"/>
            </g>
        </g>
    </g>
</svg>
